Coordinates
version=1
nRows=12
nColumns=34
inDegrees=yes

Units are S.I. units (second, meters, Newtons, ...)
If the header above contains a line with 'inDegrees', this indicates whether rotational values are in degrees (yes) or radians (no).

endheader
time	pelvis_tilt	pelvis_list	pelvis_rotation	pelvis_tx	pelvis_ty	pelvis_tz	hip_flexion_r	hip_adduction_r	hip_rotation_r	knee_angle_r	ankle_angle_r	subtalar_angle_r	mtp_angle_r	hip_flexion_l	hip_adduction_l	hip_rotation_l	knee_angle_l	ankle_angle_l	subtalar_angle_l	mtp_angle_l	lumbar_extension	lumbar_bending	lumbar_rotation	arm_flex_r	arm_add_r	arm_rot_r	elbow_flex_r	pro_sup_r	arm_flex_l	arm_add_l	arm_rot_l	elbow_flex_l	pro_sup_l
      1.65000000	     -7.70658761	     -0.56101441	     -6.77224914	      0.00179234	      1.26788761	     -0.07637731	      2.58714473	      1.98874861	     -1.94702660	      0.00000000	     -6.15621082	     -8.90192466	      0.00000000	      0.47585524	     -3.78515797	      0.01165664	      0.00000000	      7.18611514	      3.11776746	      0.00000000	     -2.44375630	      2.85038196	      1.85462563	      1.88528355	     -7.03234244	     15.02319556	     27.71131329	     84.79947335	      5.34259432	     -6.64982975	     28.05157082	     25.30575031	     87.70679955
      1.66666670	     -7.59356116	     -0.61082947	     -6.84540364	      0.00186515	      1.27018405	     -0.07501468	      2.51036367	      2.11319533	     -1.20614117	      0.00000000	     -5.88574542	     -8.46811546	      0.00000000	      0.23842998	     -3.89150758	      0.16760295	      0.00000000	      7.00272999	      2.73403335	      0.00000000	     -2.75743705	      2.90257284	      2.02806529	      1.88845726	     -7.11210218	     14.86611527	     27.86516922	     84.92358423	      5.43128651	     -6.72439558	     27.58902734	     25.44123742	     87.81464632
      1.68333330	     -7.60511912	     -0.57996080	     -6.83092939	      0.00182926	      1.26908147	     -0.07462265	      2.55451948	      2.12864712	     -1.20190029	      0.00000000	     -5.88838091	     -8.46346424	      0.00000000	      0.17450039	     -3.90630923	      0.16908759	      0.00000000	      6.99693281	      2.73439099	      0.00000000	     -2.75873269	      2.90103186	      2.02096236	      1.88187079	     -7.11746228	     14.86476844	     27.86375739	     84.92411575	      5.44022543	     -6.72978482	     27.58550962	     25.44233939	     87.81504863
      1.70000000	     -7.59888455	     -0.60659173	     -6.79932729	      0.00011402	      1.26658525	     -0.07317102	      2.62686933	      2.25322259	     -1.00287835	      0.00000000	     -5.89522012	     -8.34142386	      0.00000000	      0.11047821	     -4.01183156	      0.20048058	      0.00000000	      6.89247544	      2.70844033	      0.00000000	     -2.83988976	      2.81349082	      1.89840519	      1.75672002	     -7.20142889	     14.83087963	     27.86427424	     84.93766624	      5.64828843	     -6.99087014	     27.47876677	     25.43551569	     87.82234205
      1.71666670	     -7.56726033	     -0.55644856	     -6.79369039	     -0.00085185	      1.26689341	     -0.07160192	      2.66486483	      2.28096022	     -0.99522799	      0.00000000	     -5.89059338	     -8.33748169	      0.00000000	      0.10356594	     -4.03733655	      0.20223344	      0.00000000	      6.89033465	      2.70611828	      0.00000000	     -2.84651374	      2.81236223	      1.88956153	      1.75036738	     -7.20922832	     14.82887341	     27.86359121	     84.93806620	      5.65624928	     -6.99132102	     27.47592374	     25.43686039	     87.82273758
      1.73333330	     -7.62994873	     -0.59889709	     -6.84205625	     -0.00083070	      1.26705504	     -0.07042064	      2.82454143	      2.43235486	     -0.57798036	      0.00000000	     -5.55906025	     -8.19696903	      0.00000000	      0.26226307	     -4.20937966	      0.27592180	      0.00000000	      6.75303044	      2.55054422	      0.00000000	     -3.19707208	      2.74006742	      1.78334032	      1.82021459	     -7.22710165	     14.74081017	     28.05039028	     84.96702217	      6.00828952	     -7.25859336	     27.27221673	     25.45031998	     87.84069937
      1.75000000	     -7.63767446	     -0.58469957	     -6.80976680	      0.00078445	      1.26886619	     -0.06929898	      2.85340160	      2.49372893	     -0.52087460	      0.00000000	     -5.52402839	     -8.16937437	      0.00000000	      0.32563218	     -4.29407618	      0.25946424	      0.00000000	      6.72421895	      2.51150750	      0.00000000	     -3.35104042	      2.63894146	      1.73355765	      1.69960140	     -7.31130555	     14.71945812	     28.02880332	     84.97124057	      5.95492940	     -7.28336719	     27.24745280	     25.42835004	     87.84453924
      1.76666670	     -7.65782318	     -0.57411949	     -6.87344415	      0.00337599	      1.26725414	     -0.06832951	      2.81898281	      2.53314085	     -0.46375916	      0.00000000	     -5.38375793	     -8.16724872	      0.00000000	      0.36482340	     -4.38267021	      0.25841900	      0.00000000	      6.69637155	      2.46964662	      0.00000000	     -3.48403834	      2.61063456	      1.69346193	      1.53294524	     -7.39223433	     14.69221402	     28.01530162	     84.97738761	      5.89850427	     -7.37887106	     27.19446397	     25.39557926	     87.84700855
      1.78333330	     -7.67476995	     -0.57658967	     -6.84995520	      0.00281348	      1.26731716	     -0.06685250	      2.77633813	      2.60762167	     -0.33889584	      0.00000000	     -5.13809757	     -8.16779510	      0.00000000	      0.34261688	     -4.49117721	      0.24898673	      0.00000000	      6.69337249	      2.39759487	      0.00000000	     -3.58241625	      2.54190853	      1.66445342	      1.30754653	     -7.47655977	     14.65670839	     28.00156792	     84.98444361	      5.79764053	     -7.50257185	     27.12327223	     25.35185900	     87.84815126
      1.80000000	     -7.68482485	     -0.52574256	     -6.93994236	      0.00283158	      1.26614986	     -0.06610043	      2.70929161	      2.61940935	     -0.29525255	      0.00000000	     -5.01130250	     -8.16789915	      0.00000000	      0.32093954	     -4.51772233	      0.24114608	      0.00000000	      6.66903114	      2.34315523	      0.00000000	     -3.63190215	      2.52420875	      1.62052570	      1.11547376	     -7.53604786	     14.62892108	     27.98425134	     84.98886065	      5.74607501	     -7.57154399	     27.06691938	     25.33269375	     87.84788704
      1.81666670	     -7.61250214	     -0.42006035	     -6.99857083	      0.00430892	      1.26366706	     -0.06529738	      2.52991971	      2.56129419	     -0.13568173	      0.00000000	     -4.68863253	     -8.11376328	      0.00000000	      0.12490327	     -4.47082719	      0.17676270	      0.00000000	      6.61064548	      2.08003698	      0.00000000	     -3.54641168	      2.38481408	      1.69874165	      0.73742915	     -7.61744909	     14.50678914	     28.06534120	     85.00354267	      5.47561585	     -7.71339191	     26.84195560	     25.30172913	     87.84287083
      1.83333330	     -7.67966737	     -0.38091807	     -7.10312118	      0.00360323	      1.26261384	     -0.06399218	      2.56085260	      2.59316036	     -0.13832637	      0.00000000	     -4.64894683	     -8.11194717	      0.00000000	      0.13632655	     -4.50791326	      0.19380193	      0.00000000	      6.60294615	      2.04736500	      0.00000000	     -3.67876698	      2.29306722	      1.66324162	      0.58191154	     -7.70016194	     14.47919338	     28.03318799	     85.00446668	      5.38918114	     -7.72312781	     26.81079416	     25.28458690	     87.84234314
